<svg xmlns="http://www.w3.org/2000/svg" viewBox="0 0 777.49 220.55"><defs><style>.cls-1{fill:#ff2b06;}.cls-2{fill:#fff;}.cls-3{fill:#f5f5f5;}</style></defs><title>tedxkneu-white-x2</title><g id="Layer_2" data-name="Layer 2"><g id="Layer_1-2" data-name="Layer 1"><path class="cls-1" d="M10.6,152.14,3,141.23h7.21l4.05,6,4-6h7L17.73,152l8.5,12.24H19L14.21,157,9.4,164.25H2.33Z"/><path class="cls-2" d="M56.18,150.63H33.7v-4.76H56.18Zm0,9.53H33.7v-4.76H56.18Z"/><path class="cls-2" d="M73.4,137.67H67.08v-5.21H73.4Zm-6.32,3.56H73.4v23H67.08Z"/><path class="cls-2" d="M77.5,141.23h6v3.2h.13a8.21,8.21,0,0,1,7-3.83c6.72,0,8.41,3.78,8.41,9.48v14.15H92.76v-13c0-3.78-1.11-5.65-4.05-5.65-3.43,0-4.9,1.91-4.9,6.59v12.06H77.5Z"/><path class="cls-2" d="M119.42,161.31h-.09c-1.47,2.49-4.05,3.56-7,3.56-6.94,0-10.33-6-10.33-12.33,0-6.19,3.43-11.93,10.19-11.93a8,8,0,0,1,6.85,3.43h0V132.47h6.32v31.78h-6Zm-5.52-15.93c-4.14,0-5.56,3.56-5.56,7.34,0,3.6,1.65,7.39,5.56,7.39,4.18,0,5.43-3.65,5.43-7.43S118,145.37,113.9,145.37Z"/><path class="cls-2" d="M134.51,154.28c.18,4,2.14,5.83,5.65,5.83,2.54,0,4.58-1.56,5-3h5.56c-1.78,5.43-5.56,7.74-10.77,7.74-7.26,0-11.75-5-11.75-12.11,0-6.9,4.76-12.15,11.75-12.15,7.83,0,11.62,6.59,11.17,13.66Zm10.28-4c-.58-3.2-2-4.9-5-4.9a5,5,0,0,0-5.25,4.9Z"/><path class="cls-2" d="M154,141.23h6v2.94h.09a7.66,7.66,0,0,1,6.85-3.56c7.21,0,10.46,5.83,10.46,12.37,0,6.14-3.38,11.88-10.1,11.88a8.17,8.17,0,0,1-6.9-3.47h-.09v10.95H154Zm17.09,11.57c0-3.65-1.47-7.43-5.52-7.43s-5.47,3.69-5.47,7.43,1.42,7.3,5.52,7.3S171.05,156.55,171.05,152.81Z"/><path class="cls-2" d="M185.47,154.28c.18,4,2.14,5.83,5.65,5.83,2.54,0,4.58-1.56,5-3h5.56c-1.78,5.43-5.56,7.74-10.77,7.74-7.26,0-11.75-5-11.75-12.11,0-6.9,4.76-12.15,11.75-12.15,7.83,0,11.62,6.59,11.17,13.66Zm10.28-4c-.58-3.2-2-4.9-5-4.9a5,5,0,0,0-5.25,4.9Z"/><path class="cls-2" d="M204.92,141.23h6v3.2h.13a8.21,8.21,0,0,1,7-3.83c6.72,0,8.41,3.78,8.41,9.48v14.15h-6.32v-13c0-3.78-1.11-5.65-4-5.65-3.43,0-4.9,1.91-4.9,6.59v12.06h-6.32Z"/><path class="cls-2" d="M246.85,161.31h-.09c-1.47,2.49-4,3.56-7,3.56-6.94,0-10.33-6-10.33-12.33,0-6.19,3.43-11.93,10.19-11.93a8.05,8.05,0,0,1,6.86,3.43h0V132.47h6.32v31.78h-6Zm-5.52-15.93c-4.14,0-5.56,3.56-5.56,7.34,0,3.6,1.65,7.39,5.56,7.39,4.18,0,5.43-3.65,5.43-7.43S245.42,145.37,241.33,145.37Z"/><path class="cls-2" d="M261.93,154.28c.18,4,2.14,5.83,5.65,5.83,2.54,0,4.58-1.56,5-3h5.56c-1.78,5.43-5.56,7.74-10.77,7.74-7.26,0-11.75-5-11.75-12.11,0-6.9,4.76-12.15,11.75-12.15,7.83,0,11.62,6.59,11.17,13.66Zm10.28-4c-.58-3.2-2-4.9-5-4.9a5,5,0,0,0-5.25,4.9Z"/><path class="cls-2" d="M281.38,141.23h6v3.2h.13a8.21,8.21,0,0,1,7-3.83c6.72,0,8.41,3.78,8.41,9.48v14.15h-6.32v-13c0-3.78-1.11-5.65-4.05-5.65-3.43,0-4.9,1.91-4.9,6.59v12.06h-6.32Z"/><path class="cls-2" d="M314.9,141.23h4.63v4.23H314.9v11.39c0,2.14.53,2.67,2.67,2.67a9.74,9.74,0,0,0,2-.18v4.94a24.22,24.22,0,0,1-3.69.22c-3.87,0-7.26-.89-7.26-5.47V145.46h-3.83v-4.23h3.83v-6.9h6.32Z"/><path class="cls-2" d="M321.84,132.47h6.32v31.78h-6.32Z"/><path class="cls-2" d="M343.6,167.14c-1.38,3.69-3.56,5.21-7.92,5.21a37.58,37.58,0,0,1-3.87-.22v-5.21a33.55,33.55,0,0,0,3.7.22c2.18-.22,2.89-2.49,2.18-4.32l-8.1-21.59h6.77L341.55,157h.09l5-15.76h6.54Z"/><path class="cls-2" d="M13.53,188.19c7.25,0,11.93,4.81,11.93,12.15s-4.67,12.11-11.93,12.11S1.65,207.64,1.65,200.35,6.32,188.19,13.53,188.19Zm0,19.5c4.32,0,5.61-3.69,5.61-7.34S17.85,193,13.53,193,8,196.65,8,200.35,9.26,207.69,13.53,207.69Z"/><path class="cls-2" d="M27.77,188.82h6v4.27h.09a8.14,8.14,0,0,1,7.34-4.9,4.7,4.7,0,0,1,1.38.22v5.87a11.52,11.52,0,0,0-2.27-.22c-4.63,0-6.23,3.34-6.23,7.39v10.37H27.77Z"/><path class="cls-2" d="M66.32,210.36c0,3.78-1.34,10.19-11.93,10.19-4.54,0-9.84-2.14-10.15-7.39h6.28c.58,2.36,2.49,3.16,4.72,3.16,3.52,0,5.12-2.4,5.07-5.7v-3h-.09a7.78,7.78,0,0,1-6.9,3.56c-6.9,0-9.84-5.25-9.84-11.57,0-6,3.43-11.39,9.88-11.39,3,0,5.34,1,6.85,3.69h.09v-3.07h6Zm-6-10.33c0-3.74-1.29-7.08-5.39-7.08-3.56,0-5.12,3.12-5.12,6.54s1.25,6.9,5.12,6.9C58.53,206.4,60.31,203.33,60.31,200Z"/><path class="cls-2" d="M69.34,195.89c.36-5.92,5.65-7.7,10.82-7.7,4.58,0,10.1,1,10.1,6.54v12c0,2.09.22,4.18.8,5.12H84.65a9.39,9.39,0,0,1-.44-2.23,10.55,10.55,0,0,1-7.75,2.85c-4.36,0-7.83-2.18-7.83-6.9,0-5.21,3.92-6.45,7.83-7s7.48-.44,7.48-3-1.87-3.12-4.1-3.12c-2.4,0-4,1-4.18,3.47Zm14.6,4.67c-1.07.93-3.29,1-5.25,1.33s-3.74,1.07-3.74,3.38,1.83,2.94,3.87,2.94c4.94,0,5.12-3.92,5.12-5.3Z"/><path class="cls-2" d="M94.26,188.82h6V192h.13a8.21,8.21,0,0,1,7-3.83c6.72,0,8.41,3.78,8.41,9.48v14.15h-6.32v-13c0-3.78-1.11-5.65-4.05-5.65-3.43,0-4.9,1.91-4.9,6.59v12.06H94.26Z"/><path class="cls-2" d="M125.37,185.26h-6.32V180h6.32Zm-6.32,3.56h6.32v23h-6.32Z"/><path class="cls-2" d="M128,207.07l12-13.49H128.93v-4.76h19.41v4.76l-12,13.49h12.82v4.76H128Z"/><path class="cls-2" d="M156.89,201.86c.18,4,2.14,5.83,5.65,5.83,2.54,0,4.58-1.56,5-3h5.56c-1.78,5.43-5.56,7.75-10.77,7.75-7.25,0-11.75-5-11.75-12.11,0-6.9,4.76-12.15,11.75-12.15,7.83,0,11.62,6.59,11.17,13.66Zm10.28-4c-.58-3.21-2-4.9-5-4.9a5,5,0,0,0-5.25,4.9Z"/><path class="cls-2" d="M192.76,208.89h-.09c-1.47,2.49-4,3.56-7,3.56-6.94,0-10.33-6-10.33-12.33,0-6.19,3.43-11.93,10.19-11.93a8.05,8.05,0,0,1,6.85,3.43h0V180h6.32v31.78h-6ZM187.24,193c-4.14,0-5.56,3.56-5.56,7.34,0,3.61,1.65,7.39,5.56,7.39,4.18,0,5.43-3.65,5.43-7.43S191.33,193,187.24,193Z"/><path class="cls-2" d="M221.82,185.92H212.3V180h26v5.87h-9.53v25.91h-7Z"/><path class="cls-2" d="M241.09,180h23.77v5.87H248.08v6.81h15.4v5.43h-15.4V206h17.14v5.88H241.09Z"/><path class="cls-2" d="M268.15,180h13.71c8.23,0,14.42,5.16,14.42,15.71,0,9.21-4.72,16.07-14.42,16.07H268.15Zm7,25.9h6.23c4,0,7.92-2.49,7.92-9.52,0-6.41-2.23-10.5-9.17-10.5h-5Z"/><path class="cls-2" d="M316.26,201.86c.18,4,2.14,5.83,5.65,5.83,2.54,0,4.58-1.56,5-3h5.56c-1.78,5.43-5.56,7.75-10.77,7.75-7.25,0-11.75-5-11.75-12.11,0-6.9,4.76-12.15,11.75-12.15,7.83,0,11.62,6.59,11.17,13.66Zm10.28-4c-.58-3.21-2-4.9-5-4.9a5,5,0,0,0-5.25,4.9Z"/><path class="cls-2" d="M347.55,211.83h-7l-7.88-23h6.63l4.85,15.71h.09l4.85-15.71h6.28Z"/><path class="cls-2" d="M361.39,201.86c.18,4,2.14,5.83,5.65,5.83,2.54,0,4.58-1.56,5-3h5.56c-1.78,5.43-5.56,7.75-10.77,7.75-7.25,0-11.75-5-11.75-12.11,0-6.9,4.76-12.15,11.75-12.15,7.83,0,11.62,6.59,11.17,13.66Zm10.28-4c-.58-3.21-2-4.9-5-4.9a5,5,0,0,0-5.25,4.9Z"/><path class="cls-2" d="M380.84,188.82h6V192H387a8.21,8.21,0,0,1,7-3.83c6.72,0,8.41,3.78,8.41,9.48v14.15h-6.32v-13c0-3.78-1.11-5.65-4.05-5.65-3.43,0-4.9,1.91-4.9,6.59v12.06h-6.32Z"/><path class="cls-2" d="M414.36,188.82H419V193h-4.63v11.39c0,2.14.53,2.67,2.67,2.67a9.76,9.76,0,0,0,2-.18v4.94a24.14,24.14,0,0,1-3.69.22c-3.87,0-7.25-.89-7.25-5.47V193h-3.83v-4.23H408v-6.9h6.32Z"/><path class="cls-1" d="M29.65,27.32H0V.2H91.88V27.32H62.24V106H29.65Z"/><path class="cls-1" d="M96.94.2h89.19V27.32H129.55V40.51h56.59v25.2H129.55V78.9h56.6V106H96.94Z"/><path class="cls-1" d="M191.62.2h53.5C280.39.2,292.85,26.29,292.85,53c0,32.47-17.19,53.06-54.1,53.06H191.62Zm32.6,78.7H237c20.31,0,23.28-16.46,23.28-26.4,0-6.66-2.09-25.18-25.65-25.18H224.22Z"/><path class="cls-1" d="M339.7,65.24l-9.95-16.49-9.7,16.49H296.17L318.84,31.9,297,0H320.9l8.85,15.77L338.86,0h23.89L340.91,31.9l22.68,33.35Z"/><path class="cls-3" d="M406.26,106H392V.54h14.25V51.66L457.38.54h19.69l-43.93,42.6L478.25,106H459.73L422.86,53.13,406.26,69Z"/><path class="cls-3" d="M559.92.54h13.81V106h-16L504.1,20.81h-.29V106H490V.54h16.89l52.74,85.21h.29Z"/><path class="cls-3" d="M675.39,106H597.53V.54h76.83V13.17H611.78V45.49h57.74V58.13H611.78V93.39h63.61Z"/><path class="cls-3" d="M777.49.54V69c0,21.6-13.52,39.81-42.46,39.81-28.35,0-40.55-18.22-40.55-37.9V.54h14.25v66.4c0,22.92,14,29.24,26.74,29.24,13.08,0,27.77-6,27.77-28.94V.54Z"/></g></g></svg>